<svg xmlns="http://www.w3.org/2000/svg" width="19" height="22" viewBox="0 0 19 22"><g><g><path d="M19.087 20.91c.027.276-.057.56-.233.767a.907.907 0 0 1-.689.323H1.019a.91.91 0 0 1-.689-.328 1.024 1.024 0 0 1-.233-.762l1.35-13.54c.098-.986.88-1.748 1.82-1.748h1.69v-.446C4.957 2.322 6.96 0 9.543 0h.098c2.582 0 4.585 2.322 4.585 5.176v.446h1.69c.94 0 1.723.762 1.821 1.747zM6.81 5.622h5.561v-.446c0-1.776-1.17-3.22-2.731-3.22h-.098c-1.56 0-2.732 1.444-2.732 3.22zm10.324 14.422L15.896 7.578H3.287L2.048 20.044z"/><path fill="#fff" d="M19.087 20.91c.027.276-.057.56-.233.767a.907.907 0 0 1-.689.323H1.019a.91.91 0 0 1-.689-.328 1.024 1.024 0 0 1-.233-.762l1.35-13.54c.098-.986.88-1.748 1.82-1.748h1.69v-.446C4.957 2.322 6.96 0 9.543 0h.098c2.582 0 4.585 2.322 4.585 5.176v.446h1.69c.94 0 1.723.762 1.821 1.747zM6.81 5.622h5.561v-.446c0-1.776-1.17-3.22-2.731-3.22h-.098c-1.56 0-2.732 1.444-2.732 3.22zm10.324 14.422L15.896 7.578H3.287L2.048 20.044z"/></g></g></svg>