<svg xmlns="http://www.w3.org/2000/svg" width="23" height="22" viewBox="0 0 23 22"><g><g><path d="M22.403 7.836c0 4.32-3.553 7.835-7.921 7.835-1.714 0-3.3-.543-4.598-1.46l-7.525 7.456c-.224.222-.52.333-.815.333-.291 0-.581-.107-.804-.322a1.1 1.1 0 0 1-.012-1.582l7.512-7.444a7.74 7.74 0 0 1-1.68-4.816C6.56 3.515 10.113 0 14.482 0c4.368 0 7.921 3.515 7.921 7.836zm-2.035 0c0-3.224-2.64-5.847-5.886-5.847-3.247 0-5.887 2.623-5.887 5.847s2.64 5.846 5.887 5.846c3.245 0 5.886-2.622 5.886-5.846z"/><path d="M22.403 7.836c0 4.32-3.553 7.835-7.921 7.835-1.714 0-3.3-.543-4.598-1.46l-7.525 7.456c-.224.222-.52.333-.815.333-.291 0-.581-.107-.804-.322a1.1 1.1 0 0 1-.012-1.582l7.512-7.444a7.74 7.74 0 0 1-1.68-4.816C6.56 3.515 10.113 0 14.482 0c4.368 0 7.921 3.515 7.921 7.836zm-2.035 0c0-3.224-2.64-5.847-5.886-5.847-3.247 0-5.887 2.623-5.887 5.847s2.64 5.846 5.887 5.846c3.245 0 5.886-2.622 5.886-5.846z"/></g></g></svg>